# xmcd CD database file
#
# Track frame offsets:
#	150
#	14155
#	28943
#	44240
#	58204
#	71666
#	91610
#	104202
#	115305
#	133760
#
# Disc length: 1987 seconds
#
# Revision: 0
# Processed by: cddbd v1.5.1PL2 Copyright (c) Steve Scherf et al.
# Submitted via: CDex 1.51
#
DISCID=9e07c10a
DTITLE=Jim Leake - Greatest Hits - vol. 1
DYEAR=2003
DGENRE=Country
TTITLE0=Someone
TTITLE1=Nightlight
TTITLE2=Words
TTITLE3=Dark Angel
TTITLE4=Custer
TTITLE5=Mama's Box
TTITLE6=New York City
TTITLE7=My Life's Gonna Change
TTITLE8=Good Morning Lord
TTITLE9=You've Got That Look
EXTD=YEAR: 2003
EXTT0=
EXTT1=
EXTT2=
EXTT3=
EXTT4=
EXTT5=
EXTT6=
EXTT7=
EXTT8=
EXTT9=
PLAYORDER=
